{
    "asset" : {
        "generator" : "Khronos glTF Blender I/O v1.0.5",
        "version" : "2.0"
    },
    "scene" : 0,
    "scenes" : [
        {
            "name" : "Scene",
            "nodes" : [
                0,
                1,
                5
            ]
        }
    ],
    "nodes" : [
        {
            "name" : "Light",
            "rotation" : [
                0.16907575726509094,
                0.7558803558349609,
                -0.27217137813568115,
                0.570947527885437
            ],
            "translation" : [
                4.076245307922363,
                5.903861999511719,
                -1.0054539442062378
            ]
        },
        {
            "name" : "Camera",
            "rotation" : [
                0.483536034822464,
                0.33687159419059753,
                -0.20870360732078552,
                0.7804827094078064
            ],
            "translation" : [
                7.358891487121582,
                4.958309173583984,
                6.925790786743164
            ]
        },
        {
            "mesh" : 0,
            "name" : "Sphere001",
            "rotation" : [
                -0.2065942883491516,
                0.0016819455195218325,
                0.9783928394317627,
                0.007965385913848877
            ],
            "scale" : [
                0.039370082318782806,
                0.039370082318782806,
                0.03937007859349251
            ],
            "translation" : [
                -0.01941945031285286,
                -0.12313239276409149,
                -0.03312011808156967
            ]
        },
        {
            "mesh" : 0,
            "name" : "Sphere002",
            "rotation" : [
                0.14084066450595856,
                -0.07633231580257416,
                0.8678234815597534,
                0.47033992409706116
            ],
            "scale" : [
                0.023886343464255333,
                0.023886343464255333,
                0.02388634718954563
            ],
            "translation" : [
                -0.06846479326486588,
                -0.09165943413972855,
                -0.03274131938815117
            ]
        },
        {
            "mesh" : 0,
            "name" : "Sphere003",
            "rotation" : [
                -0.6795939803123474,
                -0.0764385238289833,
                0.28148552775382996,
                0.6731085181236267
            ],
            "scale" : [
                0.05612991750240326,
                0.05612991750240326,
                0.05612991005182266
            ],
            "translation" : [
                -0.027978621423244476,
                -0.04431154951453209,
                -0.0012082019820809364
            ]
        },
        {
            "children" : [
                2,
                3,
                4
            ],
            "name" : "Yup2Zup",
            "rotation" : [
                0.7071067690849304,
                0,
                0,
                0.7071067690849304
            ]
        }
    ],
    "animations" : [
        {
            "channels" : [
                {
                    "sampler" : 0,
                    "target" : {
                        "node" : 3,
                        "path" : "translation"
                    }
                },
                {
                    "sampler" : 1,
                    "target" : {
                        "node" : 3,
                        "path" : "rotation"
                    }
                },
                {
                    "sampler" : 2,
                    "target" : {
                        "node" : 4,
                        "path" : "translation"
                    }
                },
                {
                    "sampler" : 3,
                    "target" : {
                        "node" : 4,
                        "path" : "rotation"
                    }
                },
                {
                    "sampler" : 4,
                    "target" : {
                        "node" : 2,
                        "path" : "translation"
                    }
                },
                {
                    "sampler" : 5,
                    "target" : {
                        "node" : 2,
                        "path" : "rotation"
                    }
                }
            ],
            "name" : "All Animations",
            "samplers" : [
                {
                    "input" : 4,
                    "interpolation" : "LINEAR",
                    "output" : 5
                },
                {
                    "input" : 4,
                    "interpolation" : "LINEAR",
                    "output" : 6
                },
                {
                    "input" : 4,
                    "interpolation" : "LINEAR",
                    "output" : 7
                },
                {
                    "input" : 4,
                    "interpolation" : "LINEAR",
                    "output" : 8
                },
                {
                    "input" : 4,
                    "interpolation" : "LINEAR",
                    "output" : 9
                },
                {
                    "input" : 4,
                    "interpolation" : "LINEAR",
                    "output" : 10
                }
            ]
        }
    ],
    "materials" : [
        {
            "name" : "Material #25",
            "pbrMetallicRoughness" : {
                "baseColorTexture" : {
                    "index" : 0,
                    "texCoord" : 0
                },
                "metallicFactor" : 0,
                "roughnessFactor" : 0.25595301389694214
            }
        }
    ],
    "meshes" : [
        {
            "name" : "Sphere002",
            "primitives" : [
                {
                    "attributes" : {
                        "POSITION" : 0,
                        "NORMAL" : 1,
                        "TEXCOORD_0" : 2
                    },
                    "indices" : 3,
                    "material" : 0
                }
            ]
        }
    ],
    "textures" : [
        {
            "source" : 0
        }
    ],
    "images" : [
        {
            "bufferView" : 4,
            "mimeType" : "image/png",
            "name" : "Image_0"
        }
    ],
    "accessors" : [
        {
            "bufferView" : 0,
            "componentType" : 5126,
            "count" : 2520,
            "max" : [
                0.28559038043022156,
                0.2871634066104889,
                0.2887451648712158
            ],
            "min" : [
                -0.2855902910232544,
                -0.2871634066104889,
                -0.2887451648712158
            ],
            "type" : "VEC3"
        },
        {
            "bufferView" : 1,
            "componentType" : 5126,
            "count" : 2520,
            "type" : "VEC3"
        },
        {
            "bufferView" : 2,
            "componentType" : 5126,
            "count" : 2520,
            "type" : "VEC2"
        },
        {
            "bufferView" : 3,
            "componentType" : 5123,
            "count" : 2520,
            "type" : "SCALAR"
        },
        {
            "bufferView" : 5,
            "componentType" : 5126,
            "count" : 81,
            "max" : [
                3.3333333333333335
            ],
            "min" : [
                0
            ],
            "type" : "SCALAR"
        },
        {
            "bufferView" : 6,
            "componentType" : 5126,
            "count" : 81,
            "type" : "VEC3"
        },
        {
            "bufferView" : 7,
            "componentType" : 5126,
            "count" : 81,
            "type" : "VEC4"
        },
        {
            "bufferView" : 8,
            "componentType" : 5126,
            "count" : 81,
            "type" : "VEC3"
        },
        {
            "bufferView" : 9,
            "componentType" : 5126,
            "count" : 81,
            "type" : "VEC4"
        },
        {
            "bufferView" : 10,
            "componentType" : 5126,
            "count" : 81,
            "type" : "VEC3"
        },
        {
            "bufferView" : 11,
            "componentType" : 5126,
            "count" : 81,
            "type" : "VEC4"
        }
    ],
    "bufferViews" : [
        {
            "buffer" : 0,
            "byteLength" : 30240,
            "byteOffset" : 0
        },
        {
            "buffer" : 0,
            "byteLength" : 30240,
            "byteOffset" : 30240
        },
        {
            "buffer" : 0,
            "byteLength" : 20160,
            "byteOffset" : 60480
        },
        {
            "buffer" : 0,
            "byteLength" : 5040,
            "byteOffset" : 80640
        },
        {
            "buffer" : 0,
            "byteLength" : 671269,
            "byteOffset" : 85680
        },
        {
            "buffer" : 0,
            "byteLength" : 324,
            "byteOffset" : 756952
        },
        {
            "buffer" : 0,
            "byteLength" : 972,
            "byteOffset" : 757276
        },
        {
            "buffer" : 0,
            "byteLength" : 1296,
            "byteOffset" : 758248
        },
        {
            "buffer" : 0,
            "byteLength" : 972,
            "byteOffset" : 759544
        },
        {
            "buffer" : 0,
            "byteLength" : 1296,
            "byteOffset" : 760516
        },
        {
            "buffer" : 0,
            "byteLength" : 972,
            "byteOffset" : 761812
        },
        {
            "buffer" : 0,
            "byteLength" : 1296,
            "byteOffset" : 762784
        }
    ],
    "buffers" : [
        {
            "byteLength" : 764080,
            "uri" : "data:application/octet-stream;base64,"
        }
    ]
}
